<svg width="16" height="16" viewBox="0 0 16 16" fill="none" xmlns="http://www.w3.org/2000/svg">
<path d="M8 0C12.4183 0 16 3.58172 16 8C16 12.4183 12.4183 16 8 16C3.58172 16 0 12.4183 0 8C0 3.58172 3.58172 0 8 0ZM4 6.49902C3.17157 6.49902 2.5 7.1706 2.5 7.99902C2.5 8.82745 3.17157 9.49902 4 9.49902C4.82843 9.49902 5.5 8.82745 5.5 7.99902C5.5 7.1706 4.82843 6.49902 4 6.49902ZM8 6.49902C7.17157 6.49902 6.5 7.1706 6.5 7.99902C6.5 8.82745 7.17157 9.49902 8 9.49902C8.82843 9.49902 9.5 8.82745 9.5 7.99902C9.5 7.1706 8.82843 6.49902 8 6.49902ZM12 6.49902C11.1716 6.49902 10.5 7.1706 10.5 7.99902C10.5 8.82745 11.1716 9.49902 12 9.49902C12.8284 9.49902 13.5 8.82745 13.5 7.99902C13.5 7.1706 12.8284 6.49902 12 6.49902Z" fill="#4FB1EB"/>
</svg>
